<?xml version="1.0" encoding="UTF-8" standalone="no"?>
<!DOCTYPE svg PUBLIC "-//W3C//DTD SVG 1.1//EN" "http://www.w3.org/Graphics/SVG/1.1/DTD/svg11.dtd">
<!-- Généré par Microsoft Visio, SVG Export simple.svg Page-1 -->
<svg xmlns="http://www.w3.org/2000/svg" xmlns:xlink="http://www.w3.org/1999/xlink" xmlns:ev="http://www.w3.org/2001/xml-events"
		xmlns:v="http://schemas.microsoft.com/visio/2003/SVGExtensions/" width="6.74242in" height="3.77704in"
		viewBox="0 0 485.455 271.947" xml:space="preserve" color-interpolation-filters="sRGB" class="st8">
	<v:documentProperties v:langID="1036" v:metric="true" v:viewMarkup="false">
		<v:userDefs>
			<v:ud v:nameU="msvSubprocessMaster" v:prompt="" v:val="VT4(Rectangle)"/>
			<v:ud v:nameU="msvNoAutoConnect" v:val="VT0(1):26"/>
		</v:userDefs>
	</v:documentProperties>

	<style type="text/css">
	<![CDATA[
		.st1 {fill:#ffffff;stroke:#000000;stroke-linecap:round;stroke-linejoin:round;stroke-width:0.75}
		.st2 {fill:#000000;font-family:Calibri;font-size:0.833336em}
		.st3 {fill:#000000;stroke:#000000;stroke-linecap:round;stroke-linejoin:round;stroke-width:0.75}
		.st4 {stroke:#000000;stroke-linecap:round;stroke-linejoin:round;stroke-width:0.237638}
		.st5 {marker-end:url(#mrkr4-70);stroke:#000000;stroke-linecap:round;stroke-linejoin:round;stroke-width:0.237638}
		.st6 {fill:#000000;fill-opacity:1;stroke:#000000;stroke-opacity:1;stroke-width:0.086174404659928}
		.st7 {marker-end:url(#mrkr4-91);stroke:#000000;stroke-linecap:round;stroke-linejoin:round;stroke-width:0.237638}
		.st8 {fill:none;fill-rule:evenodd;font-size:12px;overflow:visible;stroke-linecap:square;stroke-miterlimit:3}
	]]>
	</style>

	<defs id="Markers">
		<g id="lend4">
			<path d="M 2 1 L 0 0 L 2 -1 L 2 1 " style="stroke:none"/>
		</g>
		<marker id="mrkr4-70" class="st6" v:arrowType="4" v:arrowSize="2" v:setback="23.2087" refX="-23.208747514911" orient="auto"
				markerUnits="strokeWidth" overflow="visible">
			<use xlink:href="#lend4" transform="scale(-11.604373757455,-11.604373757455) "/>
		</marker>
		<marker id="mrkr4-91" class="st6" v:arrowType="4" v:arrowSize="2" v:setback="0" refX="-0" orient="auto"
				markerUnits="strokeWidth" overflow="visible">
			<use xlink:href="#lend4" transform="scale(-11.604373757455,-11.604373757455) "/>
		</marker>
	</defs>
	<g v:mID="0" v:index="1" v:groupContext="foregroundPage">
		<v:userDefs>
			<v:ud v:nameU="msvThemeOrder" v:val="VT0(0):26"/>
		</v:userDefs>
		<title>Page 1</title>
		<v:pageProperties v:drawingScale="0.0393701" v:pageScale="0.0393701" v:drawingUnits="24" v:shadowOffsetX="8.50394"
				v:shadowOffsetY="-8.50394"/>
		<v:layer v:name="Diagramme de flux" v:index="0"/>
		<v:layer v:name="Lien" v:index="1"/>
		<g id="shape66-1" v:mID="66" v:groupContext="shape" transform="translate(70.2292,-179.048)">
			<title>Carré</title>
			<desc>12</desc>
			<v:userDefs>
				<v:ud v:nameU="visVersion" v:val="VT0(15):26"/>
			</v:userDefs>
			<v:textBlock v:margins="rect(4,4,4,4)" v:tabSpace="42.5197"/>
			<v:textRect cx="14.1732" cy="257.773" width="28.35" height="28.3465"/>
			<rect x="0" y="243.6" width="28.3465" height="28.3465" class="st1"/>
			<text x="9.1" y="260.77" class="st2" v:langID="1033"><v:paragraph v:horizAlign="1"/><v:tabList/>12</text>		</g>
		<g id="shape67-4" v:mID="67" v:groupContext="shape" transform="translate(98.5756,-179.048)">
			<title>Carré.67</title>
			<v:userDefs>
				<v:ud v:nameU="visVersion" v:val="VT0(15):26"/>
			</v:userDefs>
			<rect x="0" y="243.6" width="28.3465" height="28.3465" class="st1"/>
		</g>
		<g id="shape68-6" v:mID="68" v:groupContext="shape" transform="translate(148.182,-83.4929)">
			<title>Carré.68</title>
			<desc>6</desc>
			<v:userDefs>
				<v:ud v:nameU="visVersion" v:val="VT0(15):26"/>
			</v:userDefs>
			<v:textBlock v:margins="rect(4,4,4,4)" v:tabSpace="42.5197"/>
			<v:textRect cx="14.1732" cy="257.773" width="28.35" height="28.3465"/>
			<rect x="0" y="243.6" width="28.3465" height="28.3465" class="st1"/>
			<text x="11.64" y="260.77" class="st2" v:langID="1033"><v:paragraph v:horizAlign="1"/><v:tabList/>6</text>		</g>
		<g id="shape69-9" v:mID="69" v:groupContext="shape" transform="translate(176.528,-83.4929)">
			<title>Carré.69</title>
			<v:userDefs>
				<v:ud v:nameU="visVersion" v:val="VT0(15):26"/>
			</v:userDefs>
			<rect x="0" y="243.6" width="28.3465" height="28.3465" class="st1"/>
		</g>
		<g id="shape70-11" v:mID="70" v:groupContext="shape" transform="translate(34.7961,-104.753)">
			<title>Carré.70</title>
			<desc>24</desc>
			<v:userDefs>
				<v:ud v:nameU="visVersion" v:val="VT0(15):26"/>
			</v:userDefs>
			<v:textBlock v:margins="rect(4,4,4,4)" v:tabSpace="42.5197"/>
			<v:textRect cx="14.1732" cy="257.773" width="28.35" height="28.3465"/>
			<rect x="0" y="243.6" width="28.3465" height="28.3465" class="st1"/>
			<text x="9.1" y="260.77" class="st2" v:langID="1033"><v:paragraph v:horizAlign="1"/><v:tabList/>24</text>		</g>
		<g id="shape71-14" v:mID="71" v:groupContext="shape" transform="translate(63.1426,-104.753)">
			<title>Carré.71</title>
			<v:userDefs>
				<v:ud v:nameU="visVersion" v:val="VT0(15):26"/>
			</v:userDefs>
			<rect x="0" y="243.6" width="28.3465" height="28.3465" class="st1"/>
		</g>
		<g id="shape72-16" v:mID="72" v:groupContext="shape" transform="translate(201.446,-225.225)">
			<title>Carré.72</title>
			<desc>22</desc>
			<v:userDefs>
				<v:ud v:nameU="visVersion" v:val="VT0(15):26"/>
			</v:userDefs>
			<v:textBlock v:margins="rect(4,4,4,4)" v:tabSpace="42.5197"/>
			<v:textRect cx="14.1732" cy="257.773" width="28.35" height="28.3465"/>
			<rect x="0" y="243.6" width="28.3465" height="28.3465" class="st1"/>
			<text x="9.1" y="260.77" class="st2" v:langID="1033"><v:paragraph v:horizAlign="1"/><v:tabList/>22</text>		</g>
		<g id="shape73-19" v:mID="73" v:groupContext="shape" transform="translate(229.792,-225.225)">
			<title>Carré.73</title>
			<v:userDefs>
				<v:ud v:nameU="visVersion" v:val="VT0(15):26"/>
			</v:userDefs>
			<rect x="0" y="243.6" width="28.3465" height="28.3465" class="st1"/>
		</g>
		<g id="shape74-21" v:mID="74" v:groupContext="shape" transform="translate(226.135,-150.244)">
			<title>Carré.74</title>
			<desc>42</desc>
			<v:userDefs>
				<v:ud v:nameU="visVersion" v:val="VT0(15):26"/>
			</v:userDefs>
			<v:textBlock v:margins="rect(4,4,4,4)" v:tabSpace="42.5197"/>
			<v:textRect cx="14.1732" cy="257.773" width="28.35" height="28.3465"/>
			<rect x="0" y="243.6" width="28.3465" height="28.3465" class="st1"/>
			<text x="9.1" y="260.77" class="st2" v:langID="1033"><v:paragraph v:horizAlign="1"/><v:tabList/>42</text>		</g>
		<g id="shape75-24" v:mID="75" v:groupContext="shape" transform="translate(254.481,-150.244)">
			<title>Carré.75</title>
			<v:userDefs>
				<v:ud v:nameU="visVersion" v:val="VT0(15):26"/>
			</v:userDefs>
			<rect x="0" y="243.6" width="28.3465" height="28.3465" class="st1"/>
		</g>
		<g id="shape76-26" v:mID="76" v:groupContext="shape" transform="translate(261.568,-44.6308)">
			<title>Carré.76</title>
			<desc>99</desc>
			<v:userDefs>
				<v:ud v:nameU="visVersion" v:val="VT0(15):26"/>
			</v:userDefs>
			<v:textBlock v:margins="rect(4,4,4,4)" v:tabSpace="42.5197"/>
			<v:textRect cx="14.1732" cy="257.773" width="28.35" height="28.3465"/>
			<rect x="0" y="243.6" width="28.3465" height="28.3465" class="st1"/>
			<text x="9.1" y="260.77" class="st2" v:langID="1033"><v:paragraph v:horizAlign="1"/><v:tabList/>99</text>		</g>
		<g id="shape77-29" v:mID="77" v:groupContext="shape" transform="translate(289.914,-44.6308)">
			<title>Carré.77</title>
			<v:userDefs>
				<v:ud v:nameU="visVersion" v:val="VT0(15):26"/>
			</v:userDefs>
			<rect x="0" y="243.6" width="28.3465" height="28.3465" class="st1"/>
		</g>
		<g id="shape78-31" v:mID="78" v:groupContext="shape" transform="translate(335.406,-196.879)">
			<title>Carré.78</title>
			<desc>15</desc>
			<v:userDefs>
				<v:ud v:nameU="visVersion" v:val="VT0(15):26"/>
			</v:userDefs>
			<v:textBlock v:margins="rect(4,4,4,4)" v:tabSpace="42.5197"/>
			<v:textRect cx="14.1732" cy="257.773" width="28.35" height="28.3465"/>
			<rect x="0" y="243.6" width="28.3465" height="28.3465" class="st1"/>
			<text x="9.1" y="260.77" class="st2" v:langID="1033"><v:paragraph v:horizAlign="1"/><v:tabList/>15</text>		</g>
		<g id="shape79-34" v:mID="79" v:groupContext="shape" transform="translate(363.752,-196.879)">
			<title>Carré.79</title>
			<v:userDefs>
				<v:ud v:nameU="visVersion" v:val="VT0(15):26"/>
			</v:userDefs>
			<rect x="0" y="243.6" width="28.3465" height="28.3465" class="st1"/>
		</g>
		<g id="shape80-36" v:mID="80" v:groupContext="shape" transform="translate(353.694,-104.753)">
			<title>Carré.80</title>
			<desc>3</desc>
			<v:userDefs>
				<v:ud v:nameU="visVersion" v:val="VT0(15):26"/>
			</v:userDefs>
			<v:textBlock v:margins="rect(4,4,4,4)" v:tabSpace="42.5197"/>
			<v:textRect cx="14.1732" cy="257.773" width="28.35" height="28.3465"/>
			<rect x="0" y="243.6" width="28.3465" height="28.3465" class="st1"/>
			<text x="11.64" y="260.77" class="st2" v:langID="1033"><v:paragraph v:horizAlign="1"/><v:tabList/>3</text>		</g>
		<g id="shape81-39" v:mID="81" v:groupContext="shape" transform="translate(382.04,-104.753)">
			<title>Carré.81</title>
			<v:userDefs>
				<v:ud v:nameU="visVersion" v:val="VT0(15):26"/>
			</v:userDefs>
			<rect x="0" y="243.6" width="28.3465" height="28.3465" class="st1"/>
		</g>
		<g id="shape83-41" v:mID="83" v:groupContext="shape" transform="translate(109.206,-189.678)">
			<title>Cercle</title>
			<v:userDefs>
				<v:ud v:nameU="visVersion" v:val="VT0(15):26"/>
			</v:userDefs>
			<path d="M0 268.4 A3.54331 3.54331 0 0 1 7.09 268.4 A3.54331 3.54331 0 1 1 0 268.4 Z" class="st3"/>
		</g>
		<g id="shape86-43" v:mID="86" v:groupContext="shape" transform="translate(240.422,-235.855)">
			<title>Cercle.86</title>
			<v:userDefs>
				<v:ud v:nameU="visVersion" v:val="VT0(15):26"/>
			</v:userDefs>
			<path d="M0 268.4 A3.54331 3.54331 0 0 1 7.09 268.4 A3.54331 3.54331 0 1 1 0 268.4 Z" class="st3"/>
		</g>
		<g id="shape87-45" v:mID="87" v:groupContext="shape" transform="translate(73.7725,-115.383)">
			<title>Cercle.87</title>
			<v:userDefs>
				<v:ud v:nameU="visVersion" v:val="VT0(15):26"/>
			</v:userDefs>
			<path d="M0 268.4 A3.54331 3.54331 0 0 1 7.09 268.4 A3.54331 3.54331 0 1 1 0 268.4 Z" class="st3"/>
		</g>
		<g id="shape88-47" v:mID="88" v:groupContext="shape" transform="translate(438.733,-158.474)">
			<title>Carré.88</title>
			<v:userDefs>
				<v:ud v:nameU="visVersion" v:val="VT0(15):26"/>
			</v:userDefs>
			<rect x="0" y="243.6" width="28.3465" height="28.3465" class="st1"/>
		</g>
		<g id="shape89-49" v:mID="89" v:groupContext="shape" transform="translate(631.028,-107.169) rotate(45)">
			<title>Feuille.89</title>
			<path d="M0 271.95 L40.09 271.95" class="st4"/>
		</g>
		<g id="shape90-52" v:mID="90" v:groupContext="shape" transform="translate(659.375,277.422) rotate(135)">
			<title>Feuille.90</title>
			<path d="M0 271.95 L40.09 271.95" class="st4"/>
		</g>
		<g id="shape91-55" v:mID="91" v:groupContext="shape" transform="translate(187.158,-94.1228)">
			<title>Cercle.91</title>
			<v:userDefs>
				<v:ud v:nameU="visVersion" v:val="VT0(15):26"/>
			</v:userDefs>
			<path d="M0 268.4 A3.54331 3.54331 0 0 1 7.09 268.4 A3.54331 3.54331 0 1 1 0 268.4 Z" class="st3"/>
		</g>
		<g id="shape92-57" v:mID="92" v:groupContext="shape" transform="translate(265.111,-160.874)">
			<title>Cercle.92</title>
			<v:userDefs>
				<v:ud v:nameU="visVersion" v:val="VT0(15):26"/>
			</v:userDefs>
			<path d="M0 268.4 A3.54331 3.54331 0 0 1 7.09 268.4 A3.54331 3.54331 0 1 1 0 268.4 Z" class="st3"/>
		</g>
		<g id="shape93-59" v:mID="93" v:groupContext="shape" transform="translate(374.382,-207.509)">
			<title>Cercle.93</title>
			<v:userDefs>
				<v:ud v:nameU="visVersion" v:val="VT0(15):26"/>
			</v:userDefs>
			<path d="M0 268.4 A3.54331 3.54331 0 0 1 7.09 268.4 A3.54331 3.54331 0 1 1 0 268.4 Z" class="st3"/>
		</g>
		<g id="shape94-61" v:mID="94" v:groupContext="shape" transform="translate(392.67,-115.383)">
			<title>Cercle.94</title>
			<v:userDefs>
				<v:ud v:nameU="visVersion" v:val="VT0(15):26"/>
			</v:userDefs>
			<path d="M0 268.4 A3.54331 3.54331 0 0 1 7.09 268.4 A3.54331 3.54331 0 1 1 0 268.4 Z" class="st3"/>
		</g>
		<g id="shape95-63" v:mID="95" v:groupContext="shape" transform="translate(300.544,-55.2608)">
			<title>Cercle.95</title>
			<v:userDefs>
				<v:ud v:nameU="visVersion" v:val="VT0(15):26"/>
			</v:userDefs>
			<path d="M0 268.4 A3.54331 3.54331 0 0 1 7.09 268.4 A3.54331 3.54331 0 1 1 0 268.4 Z" class="st3"/>
		</g>
		<g id="shape98-65" v:mID="98" v:groupContext="shape" v:layerMember="1" transform="translate(112.749,-193.221)">
			<title>Lien dynamique</title>
			<path d="M0 271.95 L38.27 271.95 A11.3386 11.3386 -180 0 0 49.61 260.61 L49.61 237.11 A11.3386 11.3386 0 0 1 60.94 225.77
						 L83.18 225.77" class="st5"/>
		</g>
		<g id="shape99-71" v:mID="99" v:groupContext="shape" v:layerMember="1" transform="translate(243.966,-239.398)">
			<title>Lien dynamique.99</title>
			<path d="M0 271.95 L0 298.56 A11.3386 11.3386 0 0 1 -11.34 309.89 L-34.84 309.89 A11.3386 11.3386 -180 0 0 -46.18 321.23
						 L-46.18 335.59 A11.3386 11.3386 -180 0 0 -34.84 346.93 L-23.35 346.93" class="st5"/>
		</g>
		<g id="shape100-76" v:mID="100" v:groupContext="shape" v:layerMember="1" transform="translate(272.198,-164.417)">
			<title>Lien dynamique.100</title>
			<path d="M-3.54 271.95 L-3.54 299.01 A11.3386 11.3386 0 0 1 -14.88 310.35 L-20.55 310.35 A11.3386 11.3386 -180 0 0 -31.89
						 321.69 L-31.89 366.93 A10.6299 10.6299 -180 0 0 -21.26 377.56 L-16.15 377.56" class="st5"/>
		</g>
		<g id="shape101-81" v:mID="101" v:groupContext="shape" v:layerMember="1" transform="translate(304.087,-58.8041)">
			<title>Lien dynamique.101</title>
			<path d="M0 271.95 L14.49 271.95 A11.3386 11.3386 -180 0 0 25.83 260.61 L25.83 223.16 A11.3386 11.3386 0 0 1 37.17 211.82
						 L44.09 211.82" class="st5"/>
		</g>
		<g id="shape102-86" v:mID="102" v:groupContext="shape" v:layerMember="1" transform="translate(396.213,-111.839)">
			<title>Lien dynamique.102</title>
			<path d="M0 264.86 L0 345.65 A11.3386 11.3386 0 0 1 -11.34 356.99 L-360.71 356.99 A11.3386 11.3386 0 0 1 -372.05 345.65
						 L-372.05 270.17 A5.31496 5.31496 0 0 1 -366.73 264.86 L-361.42 264.86" class="st7"/>
		</g>
		<g id="shape103-92" v:mID="103" v:groupContext="shape" v:layerMember="1" transform="translate(77.3158,-118.926)">
			<title>Lien dynamique.103</title>
			<path d="M0 271.95 L30.75 271.95 A10.6299 10.6299 0 0 1 41.38 282.58 L41.38 282.58 A10.6299 10.6299 -180 0 0 52.01 293.21
						 L65.35 293.21" class="st5"/>
		</g>
		<g id="shape104-97" v:mID="104" v:groupContext="shape" v:layerMember="1" transform="translate(190.702,-97.6661)">
			<title>Lien dynamique.104</title>
			<path d="M0 271.95 L41.92 271.95 A11.3386 11.3386 -180 0 0 48.28 269.99 A2.3622 2.3622 0 0 1 50.93 269.99 A11.3386 11.3386
						 -180 0 0 57.3 271.95 L97.7 271.95 A11.3386 11.3386 -180 0 0 109.04 260.61 L109.04 169.9 A11.3386 11.3386
						 0 0 1 120.38 158.56 L139.19 158.56" class="st5"/>
		</g>
		<g id="shape105-102" v:mID="105" v:groupContext="shape" v:layerMember="1" transform="translate(377.925,-211.052)">
			<title>Lien dynamique.105</title>
			<path d="M0 271.95 L0 299.01 A11.3386 11.3386 -180 0 0 11.34 310.35 L55.29 310.35" class="st5"/>
		</g>
	</g>
</svg>
